<?xml version="1.0" encoding="UTF-8"?>
<!DOCTYPE svg PUBLIC "-//W3C//DTD SVG 1.1//EN" "http://www.w3.org/Graphics/SVG/1.1/DTD/svg11.dtd">
<!-- Creator: CorelDRAW 2021.5 -->
<svg xmlns="http://www.w3.org/2000/svg" xml:space="preserve" width="80mm" height="80.0028mm" version="1.1" style="shape-rendering:geometricPrecision; text-rendering:geometricPrecision; image-rendering:optimizeQuality; fill-rule:evenodd; clip-rule:evenodd"
viewBox="0 0 7995.06 7995.34"
 xmlns:xlink="http://www.w3.org/1999/xlink"
 xmlns:xodm="http://www.corel.com/coreldraw/odm/2003">
 <defs>
  <style type="text/css">
   <![CDATA[
    .fil0 {fill:#FEFEFE}
    .fil1 {fill:#001B3F}
    .fil2 {fill:#00B0FD}
   ]]>
  </style>
 </defs>
 <g id="Layer_x0020_1">
  <metadata id="CorelCorpID_0Corel-Layer"/>
  <g id="_2749693902320">
   <path class="fil0" d="M2240.82 3807.58c-249.7,-5.55 -499.4,-11.74 -749.33,-21.27 -275.21,-10.5 -551.89,-23.16 -826.32,-46.46 -152.47,-12.95 -407.4,-32.35 -547.61,-90.46 -75.06,-31.1 -120.54,-102.13 -117.4,-183.32 3.13,-81.19 53.96,-148.5 131.19,-173.71 78.88,-25.76 184.64,-34.91 267.41,-42.29 135.63,-12.1 272.34,-19.03 408.37,-24.87 365.09,-15.7 731.48,-21.98 1096.88,-26.39 22.6,-0.28 45.19,-0.54 67.81,-0.81 -20.16,-32.14 -33.86,-66.8 -45.18,-104.68 -2.88,-9.65 -6.58,-25.32 -10.71,-37.66 -106.72,-32.95 -443.18,-40.1 -545.5,-44.11 -154.8,-6.06 -532.6,-6.09 -659.15,-86.48 -55.36,-35.16 -86.8,-90.85 -88.3,-156.42 -1.5,-65.58 27.35,-122.64 81.05,-160.31 136,-95.38 550.62,-106.97 718.97,-114.27 164.5,-7.13 328.72,-10.36 493.11,-12.55 -0.33,-25.61 -0.79,-50.16 -0.79,-71.41l-0.09 -15.55c0,-0.39 0,-0.73 0,-1.12l-0.27 -38.77c-0.01,-0.56 -0.01,-1.04 -0.01,-1.61l-0.05 -6.01c-0.01,-0.49 -0.02,-0.99 -0.02,-1.52l-0.3 -32.26c0,-0.29 0,-0.53 -0.01,-0.82l-0.08 -8.94c-0.79,-67.26 -1.64,-134.51 -2.59,-201.76 -0.02,-0.94 -0.03,-1.76 -0.03,-2.71l0 -832.58c0,-10.53 0.13,-21.08 0.4,-31.62 0.04,-1.33 0.08,-2.48 0.14,-3.81 1.21,-26.37 2.35,-52.79 4.72,-79.08 58.6,-649.59 608.52,-1151.96 1261.08,-1151.96l2800.23 0c60.65,0 109.6,33.28 149.76,73.01 605.43,599.11 1205.64,1203.63 1807.88,1805.94 42.36,42.38 61.6,98.44 55.08,154.87l3.91 4052.29c0.46,478.94 -101.82,833.71 -382.48,1222.03 -77.84,107.69 -164.19,187.29 -260.38,276.77 -185.93,172.93 -496,317.95 -744.85,366.26 -70.83,13.75 -150.89,18.1 -222.97,22.33 -112.97,6.63 -226.34,10.29 -339.46,13.21 -299.6,7.7 -599.82,9.26 -899.49,8.4 -301.57,-0.88 -603.58,-4.34 -905.03,-13.24 -115.3,-3.41 -230.77,-7.53 -345.94,-14.16 -74.52,-4.3 -154.03,-8.64 -227.71,-20.6 -1523.14,-247.2 -2250.04,-1814.96 -1770.16,-3214.01 45.66,-133.13 96.14,-256.74 160.53,-372.05 -118.24,-3.41 -236.43,-7.8 -354.17,-12.93 -152.02,-6.64 -614.34,-18.36 -738.1,-91.11 -59.07,-34.73 -93.02,-93.15 -93.93,-161.67 -0.92,-68.53 31.45,-127.83 89.57,-164.12 83.66,-52.24 284.99,-66.36 383.98,-75.3 192.25,-17.39 386.03,-28.19 578.87,-36.78 105.67,-4.72 211.57,-8.72 317.48,-11.57z"/>
   <g>
    <path class="fil1" d="M3178.2 190.47l2800.23 0c0,427.35 0,854.68 0,1282.03 0,279.02 158.27,522.81 389.47,646.1 18.06,9.94 36.33,18.7 54.84,26.39 88.3,38.03 185.43,59.13 287.24,59.13l1091.41 0c1.28,14.94 2.35,58.29 3.26,124.87l0.03 2.55 0.42 33.44 0 0.33 0.05 4.45 0.21 19.69 0.05 5.08 0.06 5.14 0.02 2.83 0.02 2.36 0.06 5.25c7.53,799.57 -0.75,3600.25 -0.97,3675.48 -1.27,458.83 -99.27,769.09 -346.38,1110.97 -72.66,100.52 -148.03,167.31 -235.73,248.89 -157.97,146.95 -436.22,276.97 -651.43,318.74 -307.33,59.66 -2534.96,49.91 -2873.81,-5.09 -1401.53,-227.46 -2063.71,-1672.1 -1620.52,-2964.18 109.24,-318.48 218.95,-482.14 354.65,-617.13 -198.97,-1.8 -1264.73,-23.09 -1370.04,-84.99 105.83,-66.08 1618.99,-127.72 1789.28,-85.53 138.49,34.32 202.08,128.85 141.28,283.36 -92.42,234.87 -468.03,422.59 -663.43,764.76 -275.75,482.86 -169.74,1054.37 93.41,1482.36 297.77,484.27 686.83,740.69 1211.33,908.3l12.03 3.85 -7.94 -7.12 -0.01 0c-165.95,-148.8 -282.8,-255.91 -385.37,-469.34 -290.22,-603.82 37.53,-1138.33 539.79,-1460.16 476.89,-305.57 766.18,-348.59 1181.61,-783.97 263.8,-276.45 613.56,-915.46 679.11,-1308.01 45.79,-163.64 158.61,-574.92 178.68,-1027.85l0.06 -1.17c0.66,-14.96 1.21,-29.97 1.66,-45.02l0.03 -1.05c0.2,-6.78 0.38,-13.55 0.53,-20.35l0.09 -4.35 0.35 -18.2c6.03,-384.51 -60.85,-788.86 -295.55,-1090.78 -170.89,-219.83 -440.8,-450.87 -859.99,-476.64 -418.28,-25.71 -776.7,171.7 -964.98,372.37 -267.83,285.44 -286.15,481.78 -397.57,940.38 -30.36,124.96 -63.59,246.87 -104.32,361.44l-0.03 0c-132.56,372.96 -344.5,668.37 -795.72,739.06 -409.94,64.25 -236.74,-166.17 -396.78,-256.7 -167.53,-94.76 -1082.83,-50.26 -1205.51,-128.18 127.37,-89.33 1092.02,-92.32 1284.62,-94.39 6.7,-30.68 8.35,-127.52 7.77,-259.79l0 -0.9 -0.02 -3.35 -0.02 -4.27 0 -0.23 -0.02 -4.07 -0.02 -3.86 0 -0.46 -0.03 -4.35 -0.02 -3.21 0 -1.16 -0.04 -4.39 -0.01 -2.54 -0.02 -1.88 -0.03 -4.44 0 -1.84 -0.03 -2.62 -0.03 -4.48 0 -1.15 -0.04 -3.35 -0.03 -4.53 0 -0.43 -0.04 -4.12 -0.03 -4.27 -0.01 -0.29 -0.04 -4.59 -0.03 -3.58 -0.01 -1.04 -0.04 -4.62 -0.02 -2.87 -0.03 -1.78 -0.04 -4.67 -0.02 -2.15 -0.03 -2.55 -0.04 -4.7 -0.01 -1.41 -0.04 -3.32 -0.05 -4.75 0 -0.66c-0.67,-63.21 -1.6,-131.41 -2.6,-202.25l0 -832.58c0,-8.92 0.1,-17.84 0.33,-26.72 1.17,-25.46 2.54,-49.19 4.16,-70.67 49.63,-546.61 512.46,-978.61 1071.39,-978.61zm1110.86 6406.31l1416.68 0c69.64,0 126.59,56.97 126.59,126.62l0 0c0,69.64 -56.95,126.62 -126.59,126.62l-1416.68 0c-69.64,0 -126.59,-56.98 -126.59,-126.62l0 0c0,-69.65 56.95,-126.62 126.59,-126.62zm0.01 -657.98l2308.41 0c69.65,0 126.6,56.97 126.6,126.61l0 0.01c0,69.64 -56.95,126.61 -126.6,126.61l-2308.41 0c-69.65,0 -126.6,-56.97 -126.6,-126.61l0 -0.01c0,-69.64 56.95,-126.61 126.6,-126.61zm776.65 -660.68l1886.05 0c69.64,0 126.61,56.98 126.61,126.62l0 0c0,69.65 -56.97,126.62 -126.61,126.62l-1886.05 0c-69.64,0 -126.61,-56.97 -126.61,-126.62l0 0c0,-69.64 56.97,-126.62 126.61,-126.62z"/>
    <path class="fil2" d="M5395.37 1907.99c-337.9,101.88 -497.43,781.58 -244.23,763.73 349.63,-24.62 488.01,-837.22 244.23,-763.73zm773.51 -1527.04l1632.51 1632.7 -1091.42 0c-297.24,0 -541.1,-243.89 -541.1,-541.16l0 -1091.55zm-1879.82 6215.83l1416.68 0c69.64,0 126.59,56.97 126.59,126.62l0 0c0,69.64 -56.95,126.62 -126.59,126.62l-1416.68 0c-69.64,0 -126.59,-56.98 -126.59,-126.62l0 0c0,-69.65 56.95,-126.62 126.59,-126.62zm0.01 -657.98l2308.41 0c69.65,0 126.6,56.97 126.6,126.61l0 0.01c0,69.64 -56.95,126.61 -126.6,126.61l-2308.41 0c-69.65,0 -126.6,-56.97 -126.6,-126.61l0 -0.01c0,-69.64 56.95,-126.61 126.6,-126.61zm776.65 -660.68l1886.05 0c69.64,0 126.61,56.98 126.61,126.62l0 0c0,69.65 -56.97,126.62 -126.61,126.62l-1886.05 0c-69.64,0 -126.61,-56.97 -126.61,-126.62l0 0c0,-69.64 56.97,-126.62 126.61,-126.62zm-1420.48 2171.78c-170.18,-152.54 -289.11,-259.64 -393.32,-476.46 -290.22,-603.82 37.53,-1138.33 539.79,-1460.16 476.89,-305.57 766.18,-348.59 1181.61,-783.97 263.8,-276.45 613.56,-915.46 679.11,-1308.01 -170.81,369.78 -275,541.44 -328.22,626.8 -259.7,416.47 -573.58,680.75 -1013.99,889.26 -212.46,100.59 -464.71,176.2 -687.27,263.76 -456.35,179.54 -869.51,472.93 -883.58,1018.73 -8.08,312.77 135.99,614.15 340.19,844.82 180.32,203.69 312.38,305.24 565.68,385.22zm-3454.77 -3976.47c305.96,126.8 2267.11,146.79 2747,159.6 257.05,6.87 399.96,37.81 598.57,-107.74 28.96,-21.23 93.78,-88.54 99.35,-138.65 -334.26,-5.32 -3128.3,-16.61 -3444.92,86.8zm3911.33 -1599.23c374.06,54.35 650.75,749.03 379.72,770.25 -374.24,29.32 -649.59,-809.46 -379.72,-770.25z"/>
   </g>
  </g>
 </g>
</svg>
