<?xml version="1.0" encoding="UTF-8"?>
<!DOCTYPE svg PUBLIC "-//W3C//DTD SVG 1.1//EN" "http://www.w3.org/Graphics/SVG/1.1/DTD/svg11.dtd">
<!-- Creator: CorelDRAW 2021.5 -->
<svg xmlns="http://www.w3.org/2000/svg" xml:space="preserve" width="80mm" height="80mm" version="1.1" style="shape-rendering:geometricPrecision; text-rendering:geometricPrecision; image-rendering:optimizeQuality; fill-rule:evenodd; clip-rule:evenodd"
viewBox="0 0 7995.06 7995.06"
 xmlns:xlink="http://www.w3.org/1999/xlink"
 xmlns:xodm="http://www.corel.com/coreldraw/odm/2003">
 <defs>
  <style type="text/css">
   <![CDATA[
    .fil0 {fill:#FEFEFE}
    .fil1 {fill:#001B3F}
    .fil2 {fill:#00B0FD}
   ]]>
  </style>
 </defs>
 <g id="Layer_x0020_1">
  <metadata id="CorelCorpID_0Corel-Layer"/>
  <circle class="fil0" cx="3997.53" cy="3997.53" r="3997.53"/>
  <g id="_2743319745968">
   <path class="fil1" d="M3340.41 951.8l2240.19 0c0,341.87 0,683.74 0,1025.62 0,223.21 126.62,418.24 311.58,516.88 14.44,7.96 29.06,14.96 43.87,21.12 70.64,30.42 148.34,47.31 229.79,47.31l873.12 0c1.03,11.95 1.89,46.63 2.61,99.89l0.03 2.04 0.33 26.75 0 0.27 0.05 3.55 0.16 15.76 0.04 4.06 0.05 4.11 0.01 2.26 0.02 1.9 0.04 4.2c6.04,639.65 -0.59,2880.19 -0.76,2940.38 -1.02,367.05 -79.42,615.26 -277.11,888.77 -58.12,80.41 -118.43,133.85 -188.59,199.12 -126.37,117.55 -348.97,221.57 -521.14,254.99 -245.86,47.73 -2027.97,39.93 -2299.04,-4.07 -1121.24,-181.98 -1650.97,-1337.68 -1296.42,-2371.35 87.4,-254.79 175.17,-385.72 283.72,-493.71 -159.17,-1.44 -1011.79,-18.47 -1096.03,-67.99 84.67,-52.87 1295.19,-102.19 1431.42,-68.43 110.79,27.46 161.66,103.09 113.03,226.68 -73.94,187.9 -374.43,338.08 -530.75,611.81 -220.6,386.29 -135.79,843.5 74.73,1185.89 238.21,387.42 549.46,592.55 969.06,726.64l9.63 3.08 -6.36 -5.69 0 0c-132.76,-119.05 -226.24,-204.73 -308.3,-375.48 -232.18,-483.05 30.02,-910.66 431.82,-1168.12 381.51,-244.46 612.94,-278.88 945.3,-627.18 211.04,-221.15 490.85,-732.37 543.28,-1046.4 36.64,-130.92 126.89,-459.94 142.94,-822.28l0.05 -0.93c0.53,-11.97 0.97,-23.99 1.33,-36.02l0.02 -0.84c0.16,-5.43 0.31,-10.84 0.43,-16.28l0.07 -3.48 0.28 -14.56c4.82,-307.61 -48.69,-631.09 -236.44,-872.61 -136.72,-175.88 -352.63,-360.71 -687.99,-381.32 -334.62,-20.57 -621.36,137.37 -771.99,297.91 -214.27,228.36 -228.92,385.42 -318.05,752.3 -24.29,99.97 -50.88,197.5 -83.45,289.16l-0.03 0c-106.04,298.37 -275.6,534.69 -636.57,591.24 -327.96,51.4 -189.4,-132.93 -317.43,-205.36 -134.02,-75.8 -866.27,-40.21 -964.4,-102.55 101.9,-71.47 873.61,-73.85 1027.69,-75.5 5.36,-24.54 6.69,-102.02 6.22,-207.83l0 -0.72 -0.01 -2.69 -0.02 -3.41 0 -0.18 -0.01 -3.26 -0.02 -3.09 0 -0.37 -0.03 -3.48 -0.01 -2.56 -0.01 -0.94 -0.02 -3.51 -0.01 -2.02 -0.01 -1.51 -0.03 -3.55 -0.01 -1.48 -0.01 -2.09 -0.03 -3.58 0 -0.93 -0.03 -2.68 -0.03 -3.62 0 -0.34 -0.03 -3.3 -0.02 -3.42 -0.01 -0.23 -0.03 -3.67 -0.02 -2.86 -0.01 -0.83 -0.04 -3.7 -0.02 -2.3 -0.01 -1.42 -0.04 -3.74 -0.01 -1.72 -0.03 -2.03 -0.03 -3.77 -0.01 -1.13 -0.03 -2.65 -0.04 -3.8 0 -0.53c-0.53,-50.57 -1.28,-105.14 -2.08,-161.79l0 -666.07c0,-7.15 0.08,-14.27 0.27,-21.38 0.93,-20.38 2.03,-39.35 3.32,-56.54 39.71,-437.28 409.98,-782.88 857.11,-782.88zm888.7 5125.05l1133.33 0c55.72,0 101.28,45.58 101.28,101.3l0 0c0,55.72 -45.56,101.3 -101.28,101.3l-1133.33 0c-55.73,0 -101.29,-45.58 -101.29,-101.3l0 0c0,-55.72 45.56,-101.3 101.29,-101.3zm0 -526.38l1846.73 0c55.72,0 101.29,45.58 101.29,101.29l0 0.01c0,55.71 -45.57,101.29 -101.29,101.29l-1846.73 0c-55.72,0 -101.29,-45.58 -101.29,-101.29l0 -0.01c0,-55.71 45.57,-101.29 101.29,-101.29zm621.33 -528.54l1508.83 0c55.71,0 101.29,45.58 101.29,101.29l0 0.01c0,55.72 -45.58,101.29 -101.29,101.29l-1508.83 0c-55.72,0 -101.3,-45.57 -101.3,-101.29l0 -0.01c0,-55.71 45.58,-101.29 101.3,-101.29z"/>
   <path class="fil2" d="M5114.15 2325.81c-270.33,81.5 -397.95,625.25 -195.39,610.98 279.71,-19.71 390.41,-669.78 195.39,-610.98zm618.81 -1221.64l1306 1306.16 -873.13 0c-237.78,0 -432.87,-195.11 -432.87,-432.92l0 -873.24zm-1503.85 4972.67l1133.33 0c55.72,0 101.28,45.58 101.28,101.3l0 0c0,55.72 -45.56,101.3 -101.28,101.3l-1133.33 0c-55.73,0 -101.29,-45.58 -101.29,-101.3l0 0c0,-55.72 45.56,-101.3 101.29,-101.3zm0 -526.38l1846.73 0c55.72,0 101.29,45.58 101.29,101.29l0 0.01c0,55.71 -45.57,101.29 -101.29,101.29l-1846.73 0c-55.72,0 -101.29,-45.58 -101.29,-101.29l0 -0.01c0,-55.71 45.57,-101.29 101.29,-101.29zm621.33 -528.54l1508.83 0c55.71,0 101.29,45.58 101.29,101.29l0 0.01c0,55.72 -45.58,101.29 -101.29,101.29l-1508.83 0c-55.72,0 -101.3,-45.57 -101.3,-101.29l0 -0.01c0,-55.71 45.58,-101.29 101.3,-101.29zm-1136.39 1737.42c-136.15,-122.03 -231.29,-207.7 -314.66,-381.16 -232.18,-483.05 30.02,-910.66 431.82,-1168.12 381.51,-244.46 612.94,-278.88 945.3,-627.18 211.04,-221.15 490.85,-732.37 543.28,-1046.4 -136.65,295.82 -219.99,433.15 -262.58,501.44 -207.75,333.17 -458.86,544.6 -811.19,711.41 -169.98,80.47 -371.77,140.95 -549.82,211 -365.07,143.63 -695.6,378.35 -706.86,815 -6.46,250.21 108.79,491.32 272.15,675.85 144.26,162.95 249.91,244.19 452.55,308.17zm-2763.82 -3181.18c244.77,101.44 1813.69,117.43 2197.61,127.68 205.63,5.49 319.97,30.24 478.85,-86.2 23.18,-16.98 75.02,-70.83 79.48,-110.92 -267.41,-4.26 -2502.64,-13.29 -2755.95,69.44zm3129.07 -1279.39c299.26,43.48 520.61,599.22 303.78,616.21 -299.4,23.46 -519.68,-647.57 -303.78,-616.21z"/>
  </g>
 </g>
</svg>
